<svg width="237" height="51" viewBox="0 0 237 51" fill="none" xmlns="http://www.w3.org/2000/svg">
<path d="M26.8812 0.623487V25.4961L22.5743 21.1903L26.8812 0.623487Z" fill="#FFC629"/>
<path d="M12.9206 11.3335L22.587 21.2072L19.207 21.1711L12.9206 11.3335Z" fill="#FFC629"/>
<path d="M51.7566 25.4962H26.8813L31.1857 21.1902L51.7566 25.4962Z" fill="#FFC629"/>
<path d="M41.0425 11.5395L31.1692 21.2072L31.2036 17.826L41.0425 11.5395Z" fill="#FFC629"/>
<path d="M26.8812 50.3765V25.496L31.1866 29.8009L26.8812 50.3765Z" fill="#FFC629"/>
<path d="M40.84 39.6573L31.1723 29.7838L34.5523 29.8202L40.84 39.6573Z" fill="#FFC629"/>
<path d="M1.99998 25.4962H26.8814L22.5747 29.801L1.99998 25.4962Z" fill="#FFC629"/>
<path d="M12.7169 39.4558L22.5869 29.784L22.5498 33.1707L12.7169 39.4558Z" fill="#FFC629"/>
<path d="M60.35 31.7282H62.0737C63.7701 31.7282 65.8344 31.3098 65.8344 29.1835C65.8344 26.7964 63.9016 26.4278 62.0737 26.4278H60.35V31.7282ZM60.35 23.6991H61.8391C63.3787 23.6991 65.2852 23.3575 65.2852 21.4681C65.2852 19.3428 63.4315 19.1855 61.7585 19.1855H60.35V23.6991ZM56.6925 16.3008H63.0663C65.4141 16.3008 68.9404 16.9801 68.9404 20.9985C68.9404 23.1735 67.4786 24.6959 65.3114 25.0905V25.1407C67.7936 25.3766 69.4907 27.0577 69.4907 29.3123C69.4907 33.9347 65.3651 34.6167 63.0663 34.6167H56.6925V16.3008Z" fill="#1B1B1B"/>
<path d="M77.0396 32.5177C78.1108 32.5177 78.9447 32.0626 79.495 31.3543C80.0683 30.6227 80.2247 29.6865 80.2247 28.6773H78.7101C77.1441 28.6773 74.8194 28.931 74.8194 30.9267C74.8194 32.0372 75.7854 32.5177 77.0396 32.5177ZM72.9388 22.3599C74.296 21.7543 76.1252 21.377 77.6137 21.377C81.7137 21.377 83.4116 23.0174 83.4116 26.8587V28.5249C83.4116 29.8393 83.4399 30.8258 83.4631 31.7829C83.4907 32.7703 83.5431 33.6797 83.6208 34.6893H80.5375C80.4087 34.0069 80.4087 33.1489 80.3829 32.7449H80.3296C79.5182 34.1855 77.7704 34.9934 76.1764 34.9934C73.8012 34.9934 71.475 33.6051 71.475 31.1272C71.475 29.1836 72.4421 28.0434 73.7731 27.4135C75.1061 26.7825 76.8286 26.656 78.2921 26.656H80.2247C80.2247 24.5598 79.2589 23.8504 77.1955 23.8504C75.7063 23.8504 74.2172 24.407 73.0437 25.2675L72.9388 22.3599Z" fill="#1B1B1B"/>
<path d="M86.8585 21.6788H90.1764V23.448H90.2281C91.3268 21.9579 92.8173 21.377 94.6424 21.377C97.8289 21.377 99.2125 23.5503 99.2125 26.4785V34.6894H95.7145V27.7412C95.7145 26.1498 95.6865 24.0046 93.4424 24.0046C90.9081 24.0046 90.36 26.6563 90.36 28.3234V34.6894H86.8585V21.6788Z" fill="#1B1B1B"/>
<path d="M111.349 24.4843C110.723 24.2038 110.044 24.005 108.972 24.005C106.806 24.005 105.422 25.6703 105.422 28.1211C105.422 30.5208 106.596 32.3644 109.051 32.3644C110.044 32.3644 111.141 32.0118 111.743 31.7601L111.898 34.5634C110.881 34.867 109.835 34.9933 108.398 34.9933C103.985 34.9933 101.764 32.0895 101.764 28.1211C101.764 24.3566 104.063 21.3769 108.266 21.3769C109.678 21.3769 110.698 21.5277 111.663 21.805L111.349 24.4843Z" fill="#1B1B1B"/>
<path d="M120.131 32.3645C122.82 32.3645 123.526 30.0421 123.526 27.8693C123.526 25.8731 122.429 24.0049 120.131 24.0049C117.858 24.0049 116.76 25.9244 116.76 27.8693C116.76 30.0173 117.467 32.3645 120.131 32.3645ZM120.131 21.377C124.127 21.377 127.181 23.9777 127.181 28.272C127.181 32.0115 124.595 34.9934 120.131 34.9934C115.691 34.9934 113.103 32.0115 113.103 28.272C113.103 23.9777 116.161 21.377 120.131 21.377Z" fill="#1B1B1B"/>
<path d="M144.118 19.6571C142.97 19.1596 141.69 18.8719 140.41 18.8719C139.157 18.8719 137.538 19.4211 137.538 21.4155C137.538 24.5905 145.532 23.253 145.532 29.3938C145.532 33.4081 142.369 34.931 138.686 34.931C136.703 34.931 135.812 34.6654 134.011 34.2229L134.352 30.9146C135.605 31.5978 137.042 32.0434 138.478 32.0434C139.861 32.0434 141.716 31.3331 141.716 29.6812C141.716 26.1911 133.724 27.6347 133.724 21.5723C133.724 17.4794 136.883 15.983 140.098 15.983C141.664 15.983 143.126 16.1924 144.459 16.64L144.118 19.6571Z" fill="#1B1B1B"/>
<path d="M152.803 32.5177C153.873 32.5177 154.707 32.0626 155.259 31.3543C155.833 30.6227 155.989 29.6865 155.989 28.6773H154.473C152.907 28.6773 150.58 28.931 150.58 30.9267C150.58 32.0372 151.547 32.5177 152.803 32.5177ZM148.701 22.3599C150.061 21.7543 151.887 21.377 153.377 21.377C157.478 21.377 159.177 23.0174 159.177 26.8587V28.5249C159.177 29.8393 159.2 30.8258 159.227 31.7829C159.253 32.7703 159.305 33.6797 159.384 34.6893H156.302C156.171 34.0069 156.171 33.1489 156.146 32.7449H156.094C155.283 34.1855 153.534 34.9934 151.939 34.9934C149.563 34.9934 147.237 33.6051 147.237 31.1272C147.237 29.1836 148.205 28.0434 149.537 27.4135C150.868 26.7825 152.593 26.656 154.054 26.656H155.989C155.989 24.5598 155.02 23.8504 152.96 23.8504C151.469 23.8504 149.979 24.407 148.805 25.2675L148.701 22.3599Z" fill="#1B1B1B"/>
<path d="M213.233 32.5416C214.305 32.5416 215.139 32.0868 215.69 31.3783C216.264 30.6466 216.419 29.7116 216.419 28.7008H214.906C213.337 28.7008 211.013 28.9545 211.013 30.9497C211.013 32.0589 211.979 32.5416 213.233 32.5416ZM209.133 22.3843C210.491 21.7782 212.319 21.4005 213.808 21.4005C217.91 21.4005 219.606 23.0404 219.606 26.8817V28.5496C219.606 29.8632 219.631 30.8488 219.658 31.8073C219.685 32.7938 219.737 33.7041 219.816 34.7133H216.732C216.602 34.0322 216.602 33.1733 216.578 32.7684H216.525C215.715 34.2086 213.966 35.0164 212.371 35.0164C209.993 35.0164 207.669 33.6272 207.669 31.1515C207.669 29.2066 208.636 28.0678 209.968 27.4365C211.298 26.806 213.023 26.6806 214.486 26.6806H216.419C216.419 24.5824 215.452 23.8748 213.392 23.8748C211.9 23.8748 210.412 24.4301 209.237 25.2907L209.133 22.3843Z" fill="#1B1B1B"/>
<path d="M162.624 21.6788H165.941V23.448H165.993C167.09 21.9579 168.579 21.377 170.407 21.377C173.593 21.377 174.976 23.5503 174.976 26.4785V34.6894H171.478V27.7412C171.478 26.1498 171.45 24.0046 169.205 24.0046C166.67 24.0046 166.123 26.6563 166.123 28.3234V34.6894H162.624V21.6788Z" fill="#1B1B1B"/>
<path d="M181.574 31.5448C182.063 31.7257 182.578 31.854 183.299 31.854C185.641 31.854 185.641 29.9734 185.641 28.686V16.705H189.244V30.4111C189.244 32.3176 188.009 34.9973 184.328 34.9973C183.35 34.9973 182.578 34.9191 181.574 34.6627V31.5448Z" fill="#1B1B1B"/>
<path d="M204.968 34.6868H201.698V32.884H201.647C200.593 34.1732 199.1 34.9974 197.3 34.9974C194.158 34.9974 192.794 32.7817 192.794 29.7932V21.4194H196.244V28.504C196.244 30.1269 196.269 32.3177 198.482 32.3177C200.98 32.3177 201.519 29.6132 201.519 27.9121V21.4194H204.968V34.6868Z" fill="#1B1B1B"/>
<path d="M222.826 21.4195H226.094V23.2224H226.147C227.228 21.7031 228.695 21.1107 230.496 21.1107C233.635 21.1107 235 23.3246 235 26.3153V34.6869H231.551V27.6032C231.551 25.9798 231.526 23.7891 229.311 23.7891C226.814 23.7891 226.275 26.494 226.275 28.1944V34.6869H222.826V21.4195Z" fill="#1B1B1B"/>
</svg>
