<?xml version="1.0" encoding="utf-8"?>
<!-- Generator: Adobe Illustrator 24.0.1, SVG Export Plug-In . SVG Version: 6.00 Build 0)  -->
<svg version="1.1" id="Capa_1" xmlns="http://www.w3.org/2000/svg" xmlns:xlink="http://www.w3.org/1999/xlink" x="0px" y="0px"
	 viewBox="0 0 500 152" style="enable-background:new 0 0 500 152;" xml:space="preserve">
<style type="text/css">
	.st0{fill:#FFFFFF;}
	.st1{fill:#F9DD38;}
</style>
<g>
	<g>
		<g>
			<g>
				<path class="st0" d="M187.67,48.26c0-2.03-1.16-3.19-3.19-3.19h-5.51V24.05h23.2c7.39,0,10.58,3.19,10.58,10.58v17.54
					c0,3.77-0.29,6.38-0.29,6.38h0.29c0,0,6.96-7.25,20.15-7.25c20.3,0,33.64,15.95,33.64,39.14c0,23.63-14.93,39-34.79,39
					c-13.77,0-20.44-7.68-20.44-7.68h-0.29c0,0,0.15,1.88,0.15,4.2v1.74h-23.49V48.26z M226.67,108.72
					c7.83,0,14.64-6.38,14.64-17.83c0-11.16-5.94-18.41-14.64-18.41c-7.54,0-14.64,5.51-14.64,18.41
					C212.02,99.88,216.81,108.72,226.67,108.72z"/>
				<path class="st0" d="M279.31,77.26c0-2.03-1.16-3.19-3.19-3.19h-5.51V53.05h23.2c7.39,0,10.58,3.19,10.58,10.58v39.87
					c0,2.03,1.16,3.19,3.19,3.19h5.51v21.02h-23.2c-7.4,0-10.58-3.19-10.58-10.58V77.26z M281.2,24.05h21.02v20.3H281.2V24.05z"/>
				<path class="st0" d="M325.31,77.26c0-2.03-1.16-3.19-3.19-3.19h-5.51V53.05h22.33c6.81,0,10.44,3.33,10.44,8.41v1.01
					c0,0.73-0.14,1.74-0.14,1.74h0.29c3.48-5.8,10.44-12.9,23.63-12.9c15.08,0,26.82,6.96,26.82,27.98v24.21
					c0,2.03,1.16,3.19,3.19,3.19h5.51v21.02h-23.2c-7.39,0-10.58-3.19-10.58-10.58v-33.2c0-6.96-2.75-9.86-8.26-9.86
					c-7.83,0-12.61,4.35-14.79,10.73c-1.02,2.9-1.45,6.23-1.45,9.86v33.05h-25.08V77.26z"/>
				<path class="st0" d="M446.5,51.31c15.08,0,19.57,5.22,19.57,5.22h0.29c0,0-0.15-1.45-0.15-3.33v-4.93
					c0-2.03-1.16-3.19-3.19-3.19h-5.51V24.05h23.2c7.39,0,10.58,3.19,10.58,10.58v68.86c0,2.03,1.16,3.19,3.19,3.19H500v21.02
					h-22.32c-7.1,0-9.71-3.62-9.71-7.1c0-0.58,0-1.3,0-1.3h-0.29c0,0-6.23,10.15-21.6,10.15c-20.3,0-33.64-15.95-33.64-39.14
					C412.43,66.68,426.64,51.31,446.5,51.31z M466.95,90.31c0-8.99-4.78-17.83-14.64-17.83c-7.83,0-14.64,6.38-14.64,17.83
					c0,11.16,5.94,18.41,14.64,18.41C459.84,108.72,466.95,103.21,466.95,90.31z"/>
			</g>
		</g>
		<g>
			<g>
				<polygon class="st1" points="75.1,59.29 58.48,30.1 75.1,0.9 91.72,30.1 				"/>
				<polygon class="st1" points="91.81,76 121.01,59.38 150.21,76 121.01,92.63 				"/>
				<polygon class="st1" points="86.92,87.82 119.32,96.7 128.2,129.1 95.8,120.22 				"/>
				<polygon class="st1" points="75.1,92.71 91.72,121.91 75.1,151.1 58.48,121.91 				"/>
				<polygon class="st1" points="63.29,87.82 54.4,120.22 22,129.1 30.88,96.7 				"/>
				<polygon class="st1" points="58.39,76 29.2,92.63 0,76 29.2,59.38 				"/>
				<polygon class="st1" points="63.29,64.18 30.88,55.3 22,22.9 54.4,31.78 				"/>
				<polygon class="st1" points="86.92,64.18 95.8,31.78 128.2,22.9 119.32,55.3 				"/>
			</g>
		</g>
	</g>
</g>
</svg>
