<?xml version="1.0" encoding="UTF-8"?>
<svg width="128.499" xmlns="http://www.w3.org/2000/svg" xmlns:xlink="http://www.w3.org/1999/xlink" viewBox="0 0 120 60">
  <defs>
    <style>
      .cls-1 {
        fill: url(#linear-gradient);
      }

      .cls-2 {
        fill: #fff;
      }
    </style>
    <linearGradient id="linear-gradient" x1="101.36" y1="37.3" x2="101.36" y2="0" gradientUnits="userSpaceOnUse">
      <stop offset="0" stop-color="#00cab1"/>
      <stop offset="1" stop-color="#1fd0ca"/>
    </linearGradient>
  </defs>
  <path class="cls-1" d="M83.24,37.3h8.64c0-8.76,4.33-11.57,11.98-15.79,6.96-3.84,15.62-8.61,15.62-21.51h-8.64c0,6.94-3.67,9.28-10.68,13.14-7.14,3.93-16.92,9.33-16.92,24.16Z"/>
  <g>
    <path class="cls-2" d="M42.7,16.93c0-2.14,1.88-1.95,3.73-1.95h7.88v-6.96h-8.57c-4.95,0-11.31,1.81-11.31,8.78,0,9.43,13.43,7.59,13.43,11.55,0,1.78-1.72,2.02-4.09,2.02h-8.46v6.96h9.25c6.19-.01,11.58-1.59,11.58-8.49,0-10.61-13.43-8.03-13.43-11.92Z"/>
    <path class="cls-2" d="M31.1,22.86c0-8.1-6.57-14.88-14.68-14.88-2.89,0-5.58.85-7.85,2.3V.01H0v37.33h7.55v-3.09c1.71,1.59,5.67,3.29,8.87,3.29,8.11,0,14.68-6.57,14.68-14.68ZM8.05,22.73c0-4.19,3.4-7.79,7.59-7.79s7.59,3.6,7.59,7.79-3.4,7.58-7.59,7.58-7.59-3.39-7.59-7.58Z"/>
    <path class="cls-2" d="M77.68,30.29h-4.09c-2.23,0-3.13-1.68-3.13-4.01v-11.33h7.22v-6.8h-7.22V.03h-8.65v26.99c0,6.69,3.96,10.33,11.28,10.33h4.59v-7.06Z"/>
    <path class="cls-2" d="M5.03,53.49H1.18v-2.46h3.46c.11,0,.21-.09.21-.21v-.71c0-.11-.09-.21-.21-.21H1.18v-2.16h3.71c.11,0,.21-.09.21-.21v-.71c0-.11-.09-.21-.21-.21H.21c-.11,0-.21.09-.21.21v7.57c0,.11.09.21.21.21h4.82c.11,0,.21-.09.21-.21v-.71c0-.11-.09-.21-.21-.21Z"/>
    <rect class="cls-2" x="6.24" y="46.12" width="1.12" height="8.49" rx=".21" ry=".21"/>
    <path class="cls-2" d="M14.49,49.07c-.54,0-1.24.18-1.76.64v-3.38c0-.11-.09-.21-.21-.21h-.71c-.11,0-.21.09-.21.21v8.08c0,.11.09.21.21.21h.71c.11,0,.21-.09.21-.21v-.31c.52.47,1.21.64,1.76.64,1.66,0,2.87-1.19,2.87-2.84s-1.21-2.84-2.87-2.84ZM14.49,53.68c-1.02,0-1.79-.77-1.79-1.78s.77-1.78,1.79-1.78,1.68.73,1.68,1.78-.69,1.78-1.68,1.78Z"/>
    <path class="cls-2" d="M22.47,51.05c0-1.2-.8-1.98-2.03-1.98-.99,0-1.75.27-2.26.79-.08.08-.08.2,0,.28l.43.5s.09.07.14.07c.06,0,.11-.02.15-.05.4-.36.85-.53,1.39-.53.72,0,1.05.31,1.07,1.01h-.14c-.91,0-3.32,0-3.32,1.94,0,1.15,1,1.67,1.93,1.67.69,0,1.2-.19,1.6-.6.01.11.02.21.04.3.02.1.1.17.2.17h.68c.06,0,.12-.03.16-.07.04-.05.06-.11.05-.17-.04-.26-.08-.71-.08-1.09v-2.23ZM21.35,52.28c0,.88-.49,1.41-1.31,1.41-.16,0-.97-.03-.97-.71s1.15-.85,2.12-.85h.16v.16Z"/>
    <path class="cls-2" d="M26.3,49.07c-.55,0-1.11.23-1.5.59,0-.09-.01-.19-.02-.28-.01-.1-.1-.18-.21-.18h-.73c-.06,0-.11.02-.15.07s-.06.1-.05.16c.03.36.05.81.05,1.08v3.9c0,.11.09.21.21.21h.71c.11,0,.21-.09.21-.21v-2.56c0-1.7,1.26-1.72,1.31-1.72.84,0,1.15.41,1.15,1.51v2.77c0,.11.09.21.21.21h.71c.11,0,.21-.09.21-.21v-3.17c0-1.42-.72-2.16-2.09-2.16Z"/>
    <path class="cls-2" d="M32.23,50.12c.44,0,.84.21,1.08.57.03.05.08.08.14.09.06.01.12,0,.16-.04l.58-.44s.07-.09.08-.14c0-.06-.01-.11-.05-.16-.51-.6-1.2-.93-1.98-.94-.82-.02-1.53.24-2.05.75-.53.52-.82,1.26-.82,2.08s.29,1.57.82,2.08c.5.49,1.19.76,1.97.76.02,0,.05,0,.07,0,.78-.01,1.47-.34,1.98-.94.04-.04.05-.1.05-.16,0-.06-.04-.11-.08-.14l-.58-.44s-.1-.05-.16-.04c-.06,0-.11.04-.14.09-.23.36-.64.57-1.08.57-.46.01-.86-.13-1.15-.42-.33-.32-.51-.81-.51-1.36s.18-1.04.51-1.36c.29-.29.69-.43,1.16-.42Z"/>
    <path class="cls-2" d="M37.38,49.07c-1.66,0-2.86,1.19-2.86,2.84s1.2,2.84,2.86,2.84,2.87-1.19,2.87-2.84-1.21-2.84-2.87-2.84ZM37.38,53.68c-.98,0-1.67-.73-1.67-1.78s.69-1.78,1.67-1.78,1.68.73,1.68,1.78-.69,1.78-1.68,1.78Z"/>
    <path class="cls-2" d="M49.29,46.12h-.71c-.11,0-.21.09-.21.21v3.38c-.52-.47-1.21-.64-1.76-.64-1.66,0-2.87,1.19-2.87,2.84s1.21,2.84,2.87,2.84c.54,0,1.24-.18,1.76-.64v.31c0,.11.09.21.21.21h.71c.11,0,.21-.09.21-.21v-8.08c0-.11-.09-.21-.21-.21ZM46.62,53.68c-.99,0-1.68-.73-1.68-1.78s.69-1.78,1.68-1.78,1.79.77,1.79,1.78-.77,1.78-1.79,1.78Z"/>
    <path class="cls-2" d="M53.09,49.07c-1.56,0-2.73,1.22-2.73,2.84s1.2,2.84,2.79,2.84c.95,0,1.71-.37,2.31-1.14.07-.09.06-.22-.03-.29l-.54-.45s-.11-.05-.17-.04c-.06,0-.11.04-.14.09-.3.48-.84.77-1.43.77-.79,0-1.44-.57-1.6-1.38h3.93c.11,0,.21-.09.21-.21v-.32c0-1.59-1.07-2.71-2.6-2.71ZM51.57,51.31c.13-.63.81-1.19,1.52-1.19.81,0,1.33.44,1.41,1.19h-2.93Z"/>
    <rect class="cls-2" x="59.69" y="46.12" width="1.12" height="8.49" rx=".21" ry=".21"/>
    <path class="cls-2" d="M66.42,51.05c0-1.2-.8-1.98-2.03-1.98-.99,0-1.75.27-2.26.79-.08.08-.08.2,0,.28l.43.5s.09.07.14.07c.06,0,.11-.02.15-.05.4-.36.85-.53,1.39-.53.72,0,1.05.31,1.07,1.01h-.14c-.91,0-3.32,0-3.32,1.94,0,1.15,1,1.67,1.93,1.67.69,0,1.2-.19,1.6-.6.01.11.02.21.04.3.02.1.1.17.2.17h.68c.06,0,.12-.03.16-.07.04-.05.06-.11.05-.17-.04-.26-.08-.71-.08-1.09v-2.23ZM65.3,52.28c0,.88-.49,1.41-1.31,1.41-.16,0-.97-.03-.97-.71s1.15-.85,2.12-.85h.16v.16Z"/>
    <path class="cls-2" d="M70.13,51.42l-.71-.17c-.71-.17-.82-.32-.82-.59,0-.53.74-.54.83-.54.41,0,.7.18.89.56.03.05.08.09.13.11.06.02.12,0,.17-.03l.63-.42c.09-.06.12-.17.07-.27-.33-.65-.99-1.01-1.85-1.01-1.02,0-2.06.53-2.06,1.71,0,.75.51,1.29,1.44,1.52l.68.16c.59.15.79.3.79.6,0,.49-.61.63-.97.63-.48,0-.87-.22-1.14-.65-.03-.05-.08-.08-.13-.09-.06-.01-.11,0-.16.03l-.61.42c-.09.06-.12.19-.06.29.46.71,1.17,1.07,2.1,1.07,1.31,0,2.15-.69,2.15-1.75,0-.76-.54-1.38-1.38-1.57Z"/>
    <path class="cls-2" d="M77.64,49.07c-1.56,0-2.73,1.22-2.73,2.84s1.2,2.84,2.79,2.84c.95,0,1.71-.37,2.31-1.14.07-.09.06-.22-.03-.29l-.54-.45s-.11-.05-.17-.04c-.06,0-.11.04-.14.09-.3.48-.84.77-1.43.77-.79,0-1.44-.57-1.6-1.38h3.93c.11,0,.21-.09.21-.21v-.32c0-1.59-1.07-2.71-2.6-2.71ZM76.11,51.31c.13-.63.81-1.19,1.52-1.19.81,0,1.33.44,1.41,1.19h-2.93Z"/>
    <path class="cls-2" d="M86.89,49.07c-.65,0-1.26.32-1.63.81-.34-.53-.89-.81-1.61-.81-.53,0-1.05.2-1.43.54v-.21c0-.11-.09-.21-.21-.21h-.76c-.06,0-.11.02-.15.07s-.06.1-.05.16c.04.42.05.77.05,1.09v3.89c0,.11.09.21.21.21h.71c.11,0,.21-.09.21-.21v-2.56c0-1.67,1.08-1.72,1.2-1.72.78,0,1.05.36,1.05,1.36v2.92c0,.11.09.21.21.21h.71c.11,0,.21-.09.21-.21v-2.66c0-.49.12-1.62,1.2-1.62.78,0,1.05.36,1.05,1.36v2.92c0,.11.09.21.21.21h.71c.11,0,.21-.09.21-.21v-3.17c0-1.42-.72-2.16-2.09-2.16Z"/>
    <path class="cls-2" d="M93.09,49.07c-.54,0-1.24.18-1.76.64v-.31c0-.11-.09-.21-.21-.21h-.71c-.11,0-.21.09-.21.21v8.08c0,.11.09.21.21.21h.71c.11,0,.21-.09.21-.21v-3.38c.52.47,1.21.64,1.76.64,1.66,0,2.87-1.19,2.87-2.84s-1.21-2.84-2.87-2.84ZM93.09,53.68c-1.02,0-1.79-.77-1.79-1.78s.77-1.78,1.79-1.78,1.68.73,1.68,1.78-.69,1.78-1.68,1.78Z"/>
    <path class="cls-2" d="M100.02,49.38c.02-.11-.04-.21-.15-.24-.17-.05-.36-.07-.58-.07-.64,0-1.11.25-1.42.58v-.24c0-.11-.09-.21-.21-.21h-.69c-.06,0-.11.02-.15.06-.04.04-.06.09-.06.15,0,.37.02.65.03.9,0,.24.02.44.02.66v3.44c0,.11.09.21.21.21h.71c.11,0,.21-.09.21-.21v-2.82c0-.58.42-1.39,1.34-1.39.14,0,.26.01.34.04.06.02.12.01.17-.02.05-.03.09-.08.1-.14l.14-.69Z"/>
    <path class="cls-2" d="M102.57,49.07c-1.56,0-2.73,1.22-2.73,2.84s1.2,2.84,2.79,2.84c.95,0,1.71-.37,2.31-1.14.07-.09.06-.22-.03-.29l-.55-.45s-.11-.05-.17-.04c-.06,0-.11.04-.14.09-.3.48-.84.77-1.43.77-.79,0-1.44-.57-1.6-1.38h3.93c.11,0,.21-.09.21-.21v-.32c0-1.59-1.07-2.71-2.6-2.71ZM101.04,51.31c.13-.63.81-1.19,1.52-1.19.81,0,1.33.44,1.41,1.19h-2.93Z"/>
    <path class="cls-2" d="M108.52,51.42l-.71-.17c-.71-.17-.82-.32-.82-.59,0-.53.74-.54.83-.54.41,0,.7.18.89.56.03.05.08.09.13.11.06.02.12,0,.17-.03l.63-.42c.09-.06.12-.17.07-.27-.33-.65-.99-1.01-1.85-1.01-1.02,0-2.06.53-2.06,1.71,0,.75.51,1.29,1.44,1.52l.68.16c.59.15.79.3.79.6,0,.49-.61.63-.97.63-.48,0-.87-.22-1.14-.65-.03-.05-.08-.08-.13-.09-.06-.01-.11,0-.16.03l-.61.42c-.09.06-.12.19-.06.29.46.71,1.17,1.07,2.1,1.07,1.31,0,2.15-.69,2.15-1.75,0-.76-.54-1.38-1.38-1.57Z"/>
    <path class="cls-2" d="M114.91,51.05c0-1.2-.8-1.98-2.03-1.98-.99,0-1.75.27-2.26.79-.08.08-.08.2,0,.28l.43.5s.09.07.14.07c.06,0,.11-.02.15-.05.4-.36.85-.53,1.39-.53.72,0,1.05.31,1.07,1.01h-.14c-.91,0-3.32,0-3.32,1.94,0,1.15,1,1.67,1.93,1.67.69,0,1.2-.19,1.6-.6.01.11.02.21.04.3.02.1.1.17.2.17h.68c.06,0,.12-.03.16-.07.04-.05.06-.11.05-.17-.04-.26-.08-.71-.08-1.09v-2.23ZM113.79,52.28c0,.88-.49,1.41-1.31,1.41-.16,0-.97-.03-.97-.71s1.15-.85,2.12-.85h.16v.16Z"/>
    <path class="cls-2" d="M118.62,51.42l-.71-.17c-.71-.17-.82-.32-.82-.59,0-.53.74-.54.83-.54.41,0,.7.18.89.56.03.05.08.09.13.11.06.02.12,0,.17-.03l.63-.42c.09-.06.12-.17.07-.27-.33-.65-.99-1.01-1.85-1.01-1.02,0-2.06.53-2.06,1.71,0,.75.51,1.29,1.44,1.52l.68.16c.59.15.79.3.79.6,0,.49-.61.63-.97.63-.48,0-.87-.22-1.14-.65-.03-.05-.08-.08-.13-.09-.06-.01-.11,0-.16.03l-.61.42c-.09.06-.12.19-.06.29.46.71,1.17,1.07,2.1,1.07,1.31,0,2.15-.69,2.15-1.75,0-.76-.54-1.38-1.38-1.57Z"/>
  </g>
</svg>